<?xml version="1.0" encoding="UTF-8" standalone="no"?>
<svg
   xmlns:dc="http://purl.org/dc/elements/1.1/"
   xmlns:cc="http://creativecommons.org/ns#"
   xmlns:rdf="http://www.w3.org/1999/02/22-rdf-syntax-ns#"
   xmlns:svg="http://www.w3.org/2000/svg"
   xmlns="http://www.w3.org/2000/svg"
   xmlns:sodipodi="http://sodipodi.sourceforge.net/DTD/sodipodi-0.dtd"
   xmlns:inkscape="http://www.inkscape.org/namespaces/inkscape"
   width="300mm"
   height="200mm"
   viewBox="0 0 300 200"
   version="1.1"
   id="svg8"
   inkscape:version="1.0.1 (1.0.1+r74)"
   sodipodi:docname="thumbnail.svg"
   inkscape:export-filename="/home/adam/thumbnail.png"
   inkscape:export-xdpi="254"
   inkscape:export-ydpi="254">
  <defs
     id="defs2" />
  <sodipodi:namedview
     id="base"
     pagecolor="#ffffff"
     bordercolor="#666666"
     borderopacity="1.0"
     inkscape:pageopacity="0.0"
     inkscape:pageshadow="2"
     inkscape:zoom="0.50000001"
     inkscape:cx="483.94802"
     inkscape:cy="376.77874"
     inkscape:document-units="mm"
     inkscape:current-layer="layer1"
     inkscape:document-rotation="0"
     showgrid="false"
     fit-margin-top="0"
     fit-margin-left="0"
     fit-margin-right="0"
     fit-margin-bottom="0"
     showborder="true"
     inkscape:window-width="2560"
     inkscape:window-height="1376"
     inkscape:window-x="0"
     inkscape:window-y="27"
     inkscape:window-maximized="1" />
  <metadata
     id="metadata5">
    <rdf:RDF>
      <cc:Work
         rdf:about="">
        <dc:format>image/svg+xml</dc:format>
        <dc:type
           rdf:resource="http://purl.org/dc/dcmitype/StillImage" />
        <dc:title />
      </cc:Work>
    </rdf:RDF>
  </metadata>
  <g
     inkscape:label="Layer 1"
     inkscape:groupmode="layer"
     id="layer1"
     transform="translate(-32.081322,-106.95898)">
    <rect
       style="fill:#f3f3f3;stroke-width:4.94533;stroke-linejoin:round;fill-opacity:1"
       id="rect927"
       width="300"
       height="200"
       x="32.081322"
       y="106.95898" />
    <g
       id="g926"
       style="fill:#000000;fill-opacity:0.09"
       transform="matrix(3.015728,0,0,3.015728,-49.352812,-186.15864)">
      <path
         style="color:#000000;font-style:normal;font-variant:normal;font-weight:normal;font-stretch:normal;font-size:medium;line-height:normal;font-family:sans-serif;font-variant-ligatures:normal;font-variant-position:normal;font-variant-caps:normal;font-variant-numeric:normal;font-variant-alternates:normal;font-variant-east-asian:normal;font-feature-settings:normal;font-variation-settings:normal;text-indent:0;text-align:start;text-decoration:none;text-decoration-line:none;text-decoration-style:solid;text-decoration-color:#000000;letter-spacing:normal;word-spacing:normal;text-transform:none;writing-mode:lr-tb;direction:ltr;text-orientation:mixed;dominant-baseline:auto;baseline-shift:baseline;text-anchor:start;white-space:normal;shape-padding:0;shape-margin:0;inline-size:0;clip-rule:nonzero;display:inline;overflow:visible;visibility:visible;opacity:1;isolation:auto;mix-blend-mode:normal;color-interpolation:sRGB;color-interpolation-filters:linearRGB;solid-color:#000000;solid-opacity:1;vector-effect:none;fill:#000000;fill-opacity:0.09;fill-rule:nonzero;stroke:none;stroke-width:3.1435;stroke-linecap:butt;stroke-linejoin:miter;stroke-miterlimit:4;stroke-dasharray:none;stroke-dashoffset:0;stroke-opacity:1;color-rendering:auto;image-rendering:auto;shape-rendering:auto;text-rendering:auto;enable-background:accumulate;stop-color:#000000;stop-opacity:1"
         d="m 120.04883,106.95898 -11.06055,10.92774 -3.68164,-3.67969 -2.22266,2.22266 5.89063,5.88867 13.2832,-13.12305 z"
         id="path910" />
      <g
         aria-label="checkr"
         id="g924"
         style="font-style:normal;font-weight:normal;font-size:33.7087px;line-height:1.25;font-family:sans-serif;fill:#000000;fill-opacity:0.09;stroke:none;stroke-width:0.842721">
        <path
           d="m 39.356343,125.88196 q 1.859904,0 3.341243,-0.69129 v 3.16019 q -1.678851,0.57607 -3.588133,0.57607 -3.538755,0 -5.283443,-2.12325 -1.744688,-2.13971 -1.744688,-5.64555 0,-3.50583 1.794066,-5.66201 1.794066,-2.17263 5.151769,-2.17263 1.744688,0 3.505836,0.62546 v 2.9956 q -1.46488,-0.62546 -2.699329,-0.62546 -2.353684,0 -3.472918,1.18507 -1.119234,1.16861 -1.119234,3.67043 0,4.70737 4.114831,4.70737 z"
           style="font-style:normal;font-variant:normal;font-weight:bold;font-stretch:normal;font-family:Keraleeyam;-inkscape-font-specification:'Keraleeyam Bold';fill:#000000;fill-opacity:0.09;stroke-width:0.842721"
           id="path912" />
        <path
           d="m 46.795958,115.72656 q 1.46488,-2.30431 4.131291,-2.30431 3.505836,0 4.657989,3.39062 0.427942,1.21799 0.427942,3.01206 v 8.77282 h -3.16019 v -8.80574 q 0,-3.48938 -2.913301,-3.48938 -1.481339,0 -2.320765,0.85589 -0.822966,0.83942 -0.822966,2.63349 v 8.80574 h -3.077894 v -21.13378 h 3.077894 z"
           style="font-style:normal;font-variant:normal;font-weight:bold;font-stretch:normal;font-family:Keraleeyam;-inkscape-font-specification:'Keraleeyam Bold';fill:#000000;fill-opacity:0.09;stroke-width:0.842721"
           id="path914" />
        <path
           d="m 69.098344,128.15335 q -2.090334,0.77358 -4.37818,0.77358 -4.098372,0 -5.908898,-2.05741 -1.810526,-2.07388 -1.810526,-5.64555 0,-3.57167 1.794067,-5.72785 1.794066,-2.17263 4.822582,-2.17263 3.044975,0 4.707367,1.99158 1.662392,1.99158 1.662392,5.10239 0,1.18507 -0.09876,1.81053 h -9.628705 q 0,3.09435 2.962678,3.60459 0.855885,0.14814 1.744689,0.14814 2.123253,0 4.13129,-0.85589 z m -2.139712,-8.4601 q 0,-1.58009 -0.938182,-2.48536 -0.938181,-0.92172 -2.386602,-0.92172 -1.431961,0 -2.403061,0.88881 -0.9711,0.8888 -0.9711,2.51827 z"
           style="font-style:normal;font-variant:normal;font-weight:bold;font-stretch:normal;font-family:Keraleeyam;-inkscape-font-specification:'Keraleeyam Bold';fill:#000000;fill-opacity:0.09;stroke-width:0.842721"
           id="path916" />
        <path
           d="m 78.299108,125.88196 q 1.859903,0 3.341243,-0.69129 v 3.16019 q -1.678852,0.57607 -3.588133,0.57607 -3.538755,0 -5.283444,-2.12325 -1.744688,-2.13971 -1.744688,-5.64555 0,-3.50583 1.794066,-5.66201 1.794067,-2.17263 5.151769,-2.17263 1.744689,0 3.505836,0.62546 v 2.9956 q -1.46488,-0.62546 -2.699329,-0.62546 -2.353683,0 -3.472918,1.18507 -1.119234,1.16861 -1.119234,3.67043 0,4.70737 4.114832,4.70737 z"
           style="font-style:normal;font-variant:normal;font-weight:bold;font-stretch:normal;font-family:Keraleeyam;-inkscape-font-specification:'Keraleeyam Bold';fill:#000000;fill-opacity:0.09;stroke-width:0.842721"
           id="path918" />
        <path
           d="m 94.281109,128.59775 h -3.324783 l -3.802104,-6.17225 -1.530718,1.97512 v 4.19713 h -3.077893 v -21.13378 h 3.077893 v 12.67368 l 5.283444,-6.33684 h 2.995597 l -4.575692,6.38622 z"
           style="font-style:normal;font-variant:normal;font-weight:bold;font-stretch:normal;font-family:Keraleeyam;-inkscape-font-specification:'Keraleeyam Bold';fill:#000000;fill-opacity:0.09;stroke-width:0.842721"
           id="path920" />
        <path
           d="m 101.34216,113.38933 c 0.39503,-0.0878 0.73519,-0.13167 1.02048,-0.13167 1.46788,0 2.54946,0.52939 2.96115,0.96585 l -1.99031,2.45429 c -0.29066,-0.22514 -0.83368,-0.24348 -1.31649,-0.24348 -1.04242,0 -1.92574,0.30724 -2.649947,0.92172 -0.72421,0.60351 -1.086315,1.4539 -1.086315,2.55119 v 8.65761 h -3.275406 v -14.91215 h 3.17665 l 0.131674,2.0245 c 0.559617,-1.22897 1.569122,-1.99158 3.028514,-2.28785 z"
           style="font-style:normal;font-variant:normal;font-weight:bold;font-stretch:normal;font-family:Keraleeyam;-inkscape-font-specification:'Keraleeyam Bold';fill:#000000;fill-opacity:0.09;stroke-width:0.842721"
           id="path922"
           sodipodi:nodetypes="ssccscscccccss" />
      </g>
    </g>
    <g
       id="g908"
       transform="matrix(3.015728,0,0,3.015728,-50.666533,-187.47235)">
      <path
         style="color:#000000;font-style:normal;font-variant:normal;font-weight:normal;font-stretch:normal;font-size:medium;line-height:normal;font-family:sans-serif;font-variant-ligatures:normal;font-variant-position:normal;font-variant-caps:normal;font-variant-numeric:normal;font-variant-alternates:normal;font-variant-east-asian:normal;font-feature-settings:normal;font-variation-settings:normal;text-indent:0;text-align:start;text-decoration:none;text-decoration-line:none;text-decoration-style:solid;text-decoration-color:#000000;letter-spacing:normal;word-spacing:normal;text-transform:none;writing-mode:lr-tb;direction:ltr;text-orientation:mixed;dominant-baseline:auto;baseline-shift:baseline;text-anchor:start;white-space:normal;shape-padding:0;shape-margin:0;inline-size:0;clip-rule:nonzero;display:inline;overflow:visible;visibility:visible;opacity:1;isolation:auto;mix-blend-mode:normal;color-interpolation:sRGB;color-interpolation-filters:linearRGB;solid-color:#000000;solid-opacity:1;vector-effect:none;fill:#44aa00;fill-opacity:1;fill-rule:nonzero;stroke:none;stroke-width:3.1435;stroke-linecap:butt;stroke-linejoin:miter;stroke-miterlimit:4;stroke-dasharray:none;stroke-dashoffset:0;stroke-opacity:1;color-rendering:auto;image-rendering:auto;shape-rendering:auto;text-rendering:auto;enable-background:accumulate;stop-color:#000000;stop-opacity:1"
         d="m 120.04883,106.95898 -11.06055,10.92774 -3.68164,-3.67969 -2.22266,2.22266 5.89063,5.88867 13.2832,-13.12305 z"
         id="path898" />
      <g
         aria-label="checkr"
         id="text835"
         style="font-style:normal;font-weight:normal;font-size:33.7087px;line-height:1.25;font-family:sans-serif;fill:#ff0066;fill-opacity:1;stroke:none;stroke-width:0.842721">
        <path
           d="m 39.356343,125.88196 q 1.859904,0 3.341243,-0.69129 v 3.16019 q -1.678851,0.57607 -3.588133,0.57607 -3.538755,0 -5.283443,-2.12325 -1.744688,-2.13971 -1.744688,-5.64555 0,-3.50583 1.794066,-5.66201 1.794066,-2.17263 5.151769,-2.17263 1.744688,0 3.505836,0.62546 v 2.9956 q -1.46488,-0.62546 -2.699329,-0.62546 -2.353684,0 -3.472918,1.18507 -1.119234,1.16861 -1.119234,3.67043 0,4.70737 4.114831,4.70737 z"
           style="font-style:normal;font-variant:normal;font-weight:bold;font-stretch:normal;font-family:Keraleeyam;-inkscape-font-specification:'Keraleeyam Bold';fill:#ff0066;stroke-width:0.842721"
           id="path839" />
        <path
           d="m 46.795958,115.72656 q 1.46488,-2.30431 4.131291,-2.30431 3.505836,0 4.657989,3.39062 0.427942,1.21799 0.427942,3.01206 v 8.77282 h -3.16019 v -8.80574 q 0,-3.48938 -2.913301,-3.48938 -1.481339,0 -2.320765,0.85589 -0.822966,0.83942 -0.822966,2.63349 v 8.80574 h -3.077894 v -21.13378 h 3.077894 z"
           style="font-style:normal;font-variant:normal;font-weight:bold;font-stretch:normal;font-family:Keraleeyam;-inkscape-font-specification:'Keraleeyam Bold';fill:#ff0066;stroke-width:0.842721"
           id="path841" />
        <path
           d="m 69.098344,128.15335 q -2.090334,0.77358 -4.37818,0.77358 -4.098372,0 -5.908898,-2.05741 -1.810526,-2.07388 -1.810526,-5.64555 0,-3.57167 1.794067,-5.72785 1.794066,-2.17263 4.822582,-2.17263 3.044975,0 4.707367,1.99158 1.662392,1.99158 1.662392,5.10239 0,1.18507 -0.09876,1.81053 h -9.628705 q 0,3.09435 2.962678,3.60459 0.855885,0.14814 1.744689,0.14814 2.123253,0 4.13129,-0.85589 z m -2.139712,-8.4601 q 0,-1.58009 -0.938182,-2.48536 -0.938181,-0.92172 -2.386602,-0.92172 -1.431961,0 -2.403061,0.88881 -0.9711,0.8888 -0.9711,2.51827 z"
           style="font-style:normal;font-variant:normal;font-weight:bold;font-stretch:normal;font-family:Keraleeyam;-inkscape-font-specification:'Keraleeyam Bold';fill:#ff0066;stroke-width:0.842721"
           id="path843" />
        <path
           d="m 78.299108,125.88196 q 1.859903,0 3.341243,-0.69129 v 3.16019 q -1.678852,0.57607 -3.588133,0.57607 -3.538755,0 -5.283444,-2.12325 -1.744688,-2.13971 -1.744688,-5.64555 0,-3.50583 1.794066,-5.66201 1.794067,-2.17263 5.151769,-2.17263 1.744689,0 3.505836,0.62546 v 2.9956 q -1.46488,-0.62546 -2.699329,-0.62546 -2.353683,0 -3.472918,1.18507 -1.119234,1.16861 -1.119234,3.67043 0,4.70737 4.114832,4.70737 z"
           style="font-style:normal;font-variant:normal;font-weight:bold;font-stretch:normal;font-family:Keraleeyam;-inkscape-font-specification:'Keraleeyam Bold';fill:#ff0066;stroke-width:0.842721"
           id="path845" />
        <path
           d="m 94.281109,128.59775 h -3.324783 l -3.802104,-6.17225 -1.530718,1.97512 v 4.19713 h -3.077893 v -21.13378 h 3.077893 v 12.67368 l 5.283444,-6.33684 h 2.995597 l -4.575692,6.38622 z"
           style="font-style:normal;font-variant:normal;font-weight:bold;font-stretch:normal;font-family:Keraleeyam;-inkscape-font-specification:'Keraleeyam Bold';fill:#ff0066;stroke-width:0.842721"
           id="path847" />
        <path
           d="m 101.34216,113.38933 c 0.39503,-0.0878 0.73519,-0.13167 1.02048,-0.13167 1.46788,0 2.54946,0.52939 2.96115,0.96585 l -1.99031,2.45429 c -0.29066,-0.22514 -0.83368,-0.24348 -1.31649,-0.24348 -1.04242,0 -1.92574,0.30724 -2.649947,0.92172 -0.72421,0.60351 -1.086315,1.4539 -1.086315,2.55119 v 8.65761 h -3.275406 v -14.91215 h 3.17665 l 0.131674,2.0245 c 0.559617,-1.22897 1.569122,-1.99158 3.028514,-2.28785 z"
           style="font-style:normal;font-variant:normal;font-weight:bold;font-stretch:normal;font-family:Keraleeyam;-inkscape-font-specification:'Keraleeyam Bold';fill:#ff0066;stroke-width:0.842721"
           id="path849"
           sodipodi:nodetypes="ssccscscccccss" />
      </g>
    </g>
    <rect
       style="fill:#ff0066;fill-opacity:1;stroke:none;stroke-width:4.91509;stroke-linejoin:round"
       id="rect1085"
       width="300"
       height="65"
       x="32.081322"
       y="218.54646" />
    <g
       id="g1083"
       style="fill:#ffffff"
       transform="translate(0.72214582,4.1491812)">
      <text
         xml:space="preserve"
         style="font-style:normal;font-weight:normal;font-size:27.0356px;line-height:1.25;font-family:sans-serif;fill:#ffffff;fill-opacity:1;stroke:none;stroke-width:0.675892"
         x="45.151432"
         y="240.77005"
         id="text937"><tspan
           sodipodi:role="line"
           x="45.151432"
           y="240.77005"
           style="font-style:normal;font-variant:normal;font-weight:normal;font-stretch:normal;font-family:Keraleeyam;-inkscape-font-specification:Keraleeyam;fill:#ffffff;stroke-width:0.675892"
           id="tspan957">right to work checks that are</tspan></text>
      <text
         xml:space="preserve"
         style="font-style:normal;font-weight:normal;font-size:27.0356px;line-height:1.25;font-family:sans-serif;fill:#ffffff;fill-opacity:1;stroke:none;stroke-width:0.675892"
         x="45.151432"
         y="266.34155"
         id="text963"><tspan
           sodipodi:role="line"
           x="45.151432"
           y="266.34155"
           style="font-style:normal;font-variant:normal;font-weight:normal;font-stretch:normal;font-family:Keraleeyam;-inkscape-font-specification:Keraleeyam;fill:#ffffff;stroke-width:0.675892"
           id="tspan961">faster, cheaper and easier</tspan></text>
    </g>
  </g>
</svg>
